# AST/ASF file generated using VICON BodyLanguage
# -----------------------------------------------
:version 1.10
:name VICON
:units
  mass 1.0
  length 0.45
  angle deg
:documentation
   .ast/.asf automatically generated from VICON data using
   VICON BodyBuilder and BodyLanguage model FoxedUp or BRILLIANT.MOD
:root
   order TX TY TZ RX RY RZ
   axis XYZ
   position 0 0 0  
   orientation 0 0 0 
:bonedata
  begin
     id 1 
     name lhipjoint
     direction 0.650112 -0.723553 0.232005 
     length 2.45805 
     axis 0 0 0  XYZ
  end
  begin
     id 2 
     name lfemur
     direction 0.34202 -0.939693 0  
     length 7.00073  
     axis 0 0 20  XYZ
    dof rx ry rz
    limits (-160.0 20.0)
           (-70.0 70.0)
           (-60.0 70.0)
  end
  begin
     id 3 
     name ltibia
     direction 0.34202 -0.939693 0   
     length 7.8748   
     axis 0 0 20   XYZ
    dof rx
    limits (-10.0 170.0)
  end
  begin
     id 4 
     name lfoot
     direction 0.0542825 -0.14914 0.987325   
     length 1.75978   
     axis -90 7.62852e-016 20   XYZ
    dof rx rz
    limits (-45.0 90.0)
           (-70.0 20.0)
  end
  begin
     id 5 
     name ltoes
     direction 1.53509e-011 -4.21906e-011 1   
     length 0.893912   
     axis -90 7.62852e-016 20   XYZ
    dof rx
    limits (-90.0 20.0)
  end
  begin
     id 6 
     name rhipjoint
     direction -0.637897 -0.733345 0.235145   
     length 2.42522  
     axis 0 0 0  XYZ 
  end
  begin
     id 7 
     name rfemur
     direction -0.34202 -0.939693 0   
     length 7.02549   
     axis 0 0 -20   XYZ
    dof rx ry rz
    limits (-160.0 20.0)
           (-70.0 70.0)
           (-70.0 60.0)
  end
  begin
     id 8 
     name rtibia
     direction -0.34202 -0.939693 0   
     length 7.71512   
     axis 0 0 -20   XYZ
    dof rx
    limits (-10.0 170.0)
 end
 begin
     id 9 
     name rfoot
     direction -0.0822618 -0.226012 0.970645   
     length 1.90014  
     axis -90 -7.62852e-016 -20   XYZ
    dof rx rz
    limits (-45.0 90.0)
           (-20.0 70.0)
  end
  begin
     id 10 
     name rtoes
     direction -1.53542e-011 -4.21872e-011 1   
     length 0.957341   
     axis -90 -7.62852e-016 -20   XYZ
    dof rx
    limits (-90.0 20.0)
  end
  begin
     id 11 
     name lowerback
     direction -0.0022947 0.999774 -0.0211557   
     length 1.89909   
     axis 0 0 0   XYZ
    dof rx ry rz
    limits (-20.0 45.0)
           (-30.0 30.0)
           (-30.0 30.0)
  end
  begin
     id 12 
     name upperback
     direction 0.0107737 0.998635 0.0511027   
     length 1.8853   
     axis 0 0 0   XYZ
    dof rx ry rz
    limits (-20.0 45.0)
           (-30.0 30.0)
           (-30.0 30.0)
  end
  begin
     id 13 
     name thorax
     direction 0.011824 0.998136 0.0598754   
     length 1.88911   
     axis 0 0 0   XYZ
    dof rx ry rz
    limits (-20.0 45.0)
           (-30.0 30.0)
           (-30.0 30.0)
  end
  begin
     id 14 
     name lowerneck
     direction -0.0685355 0.990319 0.120714   
     length 1.91222   
     axis 0 0 0   XYZ
    dof rx ry rz
    limits (-20.0 45.0)
           (-30.0 30.0)
           (-30.0 30.0)
  end
  begin
     id 15 
     name upperneck
     direction 0.0886204 0.955665 -0.280805   
     length 1.92526   
     axis 0 0 0   XYZ
    dof rx ry rz
    limits (-20.0 45.0)
           (-30.0 30.0)
           (-30.0 30.0)
  end
  begin
     id 16
     name head
     direction 0.0233423 0.993502 -0.111393  
     length 1.96056  
     axis 0 0 0   XYZ
    dof rx ry rz
    limits (-20.0 45.0)
           (-30.0 30.0)
           (-30.0 30.0)
  end
  begin
     id 17 
     name lclavicle
     direction 0.941873 0.32922 0.0670041  
     length 3.31705  
     axis 0 0 0   XYZ
    dof ry rz
    limits (-20.0 10.0)
           (0.0 20.0)
  end
  begin
     id 18 
     name lhumerus
     direction 1 -4.4898e-011 3.38707e-028   
     length 5.29277   
     axis 180 -30 -90   XYZ
    dof rx ry rz
    limits (-60.0 90.0)
           (-90.0 90.0)
           (-90.0 90.0)
  end
  begin
     id 19
     name lradius
     direction 1 -4.48952e-011 1.63213e-028   
     length 2.85226   
     axis 180 -30 -90   XYZ
    dof rx
    limits (-10.0 170.0)
  end
  begin
     id 20
     name lwrist
     direction 1 -4.49001e-011 1.27856e-027   
     length 1.42613   
     axis -1.61767e-015 90 90   XYZ
    dof ry
    limits (-180.0 0.0)
 end
  begin
     id 21 
     name lhand
     direction 1 -4.48976e-011 2.55931e-027   
     length 0.602097   
     axis -1.63363e-015 90 90   XYZ
    dof rx rz
    limits (-90.0 90.0)
           (-45.0 45.0)
  end
  begin
     id 22 
     name lfingers
     direction 1 -4.48986e-011 5.11684e-027   
     length 0.485426   
     axis -3.26723e-015 90 90   XYZ
    dof rx
    limits (0.0 90.0)
  end
  begin
     id 23
     name lthumb
     direction 0.707107 -6.34915e-011 0.707107   
     length 0.696978   
     axis -90 45 -2.25915e-014   XYZ
    dof rx rz
    limits (-45.0 45.0)
           (-45.0 45.0)
  end
  begin
     id 24 
     name rclavicle
     direction -0.939974 0.327078 0.0973096   
     length 3.10337  
     axis 0 0 0   XYZ 
    dof ry rz
    limits (-10.0 20.0)
           (-20.0 0.0)
  end
  begin
     id 25 
     name rhumerus
     direction -1 -4.48975e-011 1.83745e-027  
     length 5.13304   
     axis 180 30 90   XYZ
    dof rx ry rz
    limits (-90.0 60.0)
           (-90.0 90.0)
           (-90.0 90.0)
  end
  begin
     id 26 
     name rradius
     direction -1 -4.48977e-011 7.1775e-029   
     length 2.74305   
     axis 180 30 90   XYZ
    dof rx
    limits (-10.0 170.0)
  end
  begin
     id 27 
     name rwrist
     direction -1 -4.48977e-011 1.27963e-027   
     length 1.37152   
     axis -1.61767e-015 -90 -90   XYZ
    dof ry
    limits (-180.0 0.0)
  end
  begin
     id 28
     name rhand
     direction -1 -4.4888e-011 2.56782e-027   
     length 0.767976   
     axis -1.63363e-015 -90 -90   XYZ
    dof rx rz
    limits (-90.0 90.0)
           (-45.0 45.0)
  end
  begin
     id 29
     name rfingers
     direction -1 -4.48947e-011 5.12384e-027   
     length 0.619162   
     axis -3.26723e-015 -90 -90   XYZ
    dof rx
    limits (0.0 90.0)
  end
  begin
     id 30
     name rthumb
     direction -0.707107 -6.34857e-011 0.707107   
     length 0.888997   
     axis -90 -45 2.25915e-014   XYZ
    dof rx rz
    limits (-45.0 45.0)
           (-45.0 45.0)
  end
:hierarchy
  begin
    root lhipjoint rhipjoint lowerback
    lhipjoint lfemur
    lfemur ltibia
    ltibia lfoot
    lfoot ltoes
    rhipjoint rfemur
    rfemur rtibia
    rtibia rfoot
    rfoot rtoes
    lowerback upperback
    upperback thorax
    thorax lowerneck lclavicle rclavicle
    lowerneck upperneck
    upperneck head
    lclavicle lhumerus
    lhumerus lradius
    lradius lwrist
    lwrist lhand lthumb
    lhand lfingers
    rclavicle rhumerus
    rhumerus rradius
    rradius rwrist
    rwrist rhand rthumb
    rhand rfingers
  end

#!OML:ASF F:\VICON\USERDATA\INSTALL\rory3\rory3.ASF
:FULLY-SPECIFIED
:DEGREES
981
root -0.866982 17.0916 -1.13183 11.2447 18.4512 -1.51498
lowerback 15.7353 -3.097 -5.11216
upperback 10.8519 -4.44103 -6.68387
thorax 2.64418 -2.18316 -3.60806
lowerneck -2.71336 -7.06574 -19.5638
upperneck 4.20435 -10.2265 25.1264
head 4.12099 -4.87574 10.8519
rclavicle -1.59028e-014 1.59028e-014
rhumerus -8.82613 -21.73 7.9797
rradius 133.002
rwrist -18.9703
rhand 22.2584 12.0281
rfingers 7.12502
rthumb 46.6329 -10.7982
lclavicle -1.59028e-014 1.59028e-014
lhumerus 32.8652 -45.6161 7.36154
lradius 63.7121
lwrist 40.4806
lhand 7.55753 26.0008
lfingers 7.12502
lthumb 32.8062 53.0417
rfemur -25.8819 -7.66211 24.7556
rtibia 33.6444
rfoot -26.273 -11.4068
rtoes -0.533447
lfemur -32.9582 -3.844 -11.3958
ltibia 35.1414
lfoot -7.49077 -13.5041
ltoes 7.00992
982
root -0.826093 17.1206 -1.12309 11.8667 19.6088 -0.457128
lowerback 15.5216 -3.16316 -4.68894
upperback 10.6237 -4.48007 -6.23719
thorax 2.50099 -2.19455 -3.35992
lowerneck -3.16821 -7.42651 -19.3002
upperneck 4.45739 -10.6943 24.9047
head 4.35817 -5.06788 10.6552
rclavicle 2.70347e-014 -1.11319e-014
rhumerus -9.3056 -22.4511 7.98855
rradius 133.946
rwrist -18.4338
rhand 23.2963 12.0771
rfingers 7.12502
rthumb 47.5925 -10.3236
lclavicle 2.70347e-014 -1.11319e-014
lhumerus 33.7446 -45.8944 5.07879
lradius 66.7833
lwrist 43.7234
lhand 7.39669 25.7589
lfingers 7.12502
lthumb 32.6532 52.8316
rfemur -26.0761 -7.73634 23.5216
rtibia 33.8707
rfoot -26.5297 -12.1712
rtoes 0.217707
lfemur -32.9075 -4.58174 -12.5784
ltibia 33.9878
lfoot -6.50624 -13.6824
ltoes 7.45089
983
root -0.783549 17.1396 -1.11538 12.4955 20.7562 0.539582
lowerback 15.321 -3.18004 -4.21948
upperback 10.3532 -4.45615 -5.69984
thorax 2.31145 -2.17605 -3.04924
lowerneck -3.62083 -7.74259 -18.9896
upperneck 4.58726 -11.065 24.5026
head 4.51828 -5.21712 10.3902
rclavicle -1.74931e-014 4.13472e-014
rhumerus -10.0187 -23.213 8.1527
rradius 134.916
rwrist -18.2996
rhand 24.0627 13.0007
rfingers 7.12502
rthumb 48.2992 -9.07128
lclavicle -1.74931e-014 4.13472e-014
lhumerus 34.5824 -45.9698 2.78613
lradius 69.7709
lwrist 46.9366
lhand 7.73587 25.7224
lfingers 7.12502
lthumb 32.9759 52.7277
rfemur -26.2562 -7.84443 22.3468
rtibia 34.1942
rfoot -26.9746 -12.7281
rtoes 1.1605
lfemur -32.8949 -5.18202 -13.7265
ltibia 32.9323
lfoot -5.53375 -13.9927
ltoes 7.58347
984
root -0.736945 17.1548 -1.11131 13.0618 21.8819 1.52452
lowerback 15.216 -3.19567 -3.68638
upperback 10.0344 -4.4334 -5.1959
thorax 2.01378 -2.15425 -2.80411
lowerneck -3.88266 -8.05288 -18.6249
upperneck 4.59295 -11.4482 24.1785
head 4.61045 -5.38526 10.148
rclavicle -3.65764e-014 -1.43125e-014
rhumerus -10.4823 -24.1894 8.19584
rradius 135.762
rwrist -18.7611
rhand 24.8282 13.1753
rfingers 7.12502
rthumb 49.0034 -8.55537
lclavicle -3.65764e-014 -1.43125e-014
lhumerus 35.7875 -45.7924 -0.0276216
lradius 72.5363
lwrist 50.316
lhand 8.39398 26.0142
lfingers 7.12502
lthumb 33.6015 52.8856
rfemur -26.3892 -7.97499 21.1681
rtibia 34.6234
rfoot -27.5466 -13.2748
rtoes 2.68757
lfemur -32.8198 -5.76148 -14.8696
ltibia 31.9803
lfoot -4.65446 -14.3501
ltoes 8.13418
985
root -0.686953 17.171 -1.10663 13.6014 23.0018 2.46954
lowerback 15.0827 -3.22532 -3.06616
upperback 9.67704 -4.41878 -4.73773
thorax 1.68156 -2.13296 -2.65704
lowerneck -3.8452 -8.31346 -18.2496
upperneck 4.393 -11.7867 23.9946
head 4.5864 -5.55217 9.96998
rclavicle 5.56597e-014 -2.22639e-014
rhumerus -10.7854 -25.3651 8.05533
rradius 136.393
rwrist -19.5012
rhand 25.7965 13.0435
rfingers 7.12502
rthumb 49.8914 -8.23604
lclavicle 5.56597e-014 -2.22639e-014
lhumerus 37.0739 -45.4598 -2.95642
lradius 74.9694
lwrist 53.6014
lhand 8.90423 26.3484
lfingers 7.12502
lthumb 34.0863 53.1129
rfemur -26.5861 -8.26442 20.087
rtibia 35.1362
rfoot -28.0548 -13.9401
rtoes 3.80248
lfemur -32.7193 -6.33973 -15.9551
ltibia 31.1413
lfoot -3.94651 -14.8037
ltoes 8.42553
986
root -0.634166 17.1728 -1.10861 14.224 24.1799 3.52326
lowerback 14.8615 -3.2133 -2.53269
upperback 9.41601 -4.34584 -4.15307
thorax 1.51985 -2.09125 -2.34944
lowerneck -4.04003 -8.69091 -18.2099
upperneck 4.10817 -12.2343 23.9374
head 4.63383 -5.76391 9.87426
rclavicle 1.00983e-013 1.03368e-014
rhumerus -11.1271 -26.5494 8.10418
rradius 136.719
rwrist -19.8604
rhand 26.2672 13.0717
rfingers 7.12502
rthumb 50.3219 -7.98037
lclavicle 1.00983e-013 1.03368e-014
lhumerus 38.1209 -44.7624 -5.32433
lradius 77.0847
lwrist 56.2753
lhand 9.13393 26.2304
lfingers 7.12502
lthumb 34.3044 52.9461
rfemur -26.8263 -8.77648 18.9466
rtibia 35.7654
rfoot -28.8219 -14.4391
rtoes 5.59436
lfemur -32.705 -6.94385 -17.1344
ltibia 30.4084
lfoot -3.04862 -15.3723
ltoes 9.74128
987
root -0.572483 17.1641 -1.11737 14.8638 25.3198 4.53967
lowerback 14.6051 -3.19912 -1.898
upperback 9.22455 -4.25339 -3.46725
thorax 1.45314 -2.03909 -2.00266
lowerneck -4.53913 -9.16232 -18.2323
upperneck 3.73449 -12.733 23.6771
head 4.70691 -5.98987 9.69375
rclavicle -8.74653e-015 -1.74931e-014
rhumerus -10.9933 -27.5719 7.89944
rradius 136.622
rwrist -19.669
rhand 25.4448 12.7871
rfingers 7.12502
rthumb 49.5692 -8.65889
lclavicle -8.74653e-015 -1.74931e-014
lhumerus 38.608 -43.8277 -7.20294
lradius 79.1455
lwrist 58.2573
lhand 9.57626 26.3209
lfingers 7.12502
lthumb 34.7243 52.9409
rfemur -27.133 -9.48294 17.8179
rtibia 36.5306
rfoot -29.8271 -14.5967
rtoes 8.05165
lfemur -32.7327 -7.53546 -18.307
ltibia 29.7745
lfoot -2.08557 -16.0015
ltoes 11.4392
988
root -0.507942 17.1479 -1.12853 15.5575 26.3342 5.50848
lowerback 14.3393 -3.14733 -1.27452
upperback 8.92873 -4.1208 -2.78062
thorax 1.28367 -1.96876 -1.65268
lowerneck -5.03782 -9.60099 -18.3784
upperneck 3.44381 -13.1971 23.503
head 4.80938 -6.19656 9.56902
rclavicle 4.05521e-014 2.62396e-014
rhumerus -10.3584 -28.5184 7.23645
rradius 136.039
rwrist -19.8112
rhand 24.4801 12.834
rfingers 7.12502
rthumb 48.6834 -9.05354
lclavicle 4.05521e-014 2.62396e-014
lhumerus 38.8402 -42.9402 -8.89521
lradius 80.8879
lwrist 59.6816
lhand 10.5437 26.7571
lfingers 7.12502
lthumb 35.6419 53.1608
rfemur -27.7041 -10.1988 16.7513
rtibia 37.4288
rfoot -30.3782 -14.8554
rtoes 8.76465
lfemur -32.8725 -8.15033 -19.3898
ltibia 29.2967
lfoot -1.18203 -16.5285
ltoes 13.9845
989
root -0.447385 17.1241 -1.13758 16.2954 27.2777 6.64754
lowerback 14.1781 -3.02412 -0.96095
upperback 8.48828 -3.93659 -2.10302
thorax 0.929217 -1.88502 -1.13778
lowerneck -5.31959 -9.98554 -18.5864
upperneck 3.26485 -13.6263 23.3232
head 4.90051 -6.39721 9.46584
rclavicle 3.47873e-014 -1.27222e-014
rhumerus -9.83276 -29.6531 6.78028
rradius 135.391
rwrist -21.1875
rhand 24.5506 13.1319
rfingers 7.12502
rthumb 48.7482 -8.72417
lclavicle 3.47873e-014 -1.27222e-014
lhumerus 39.2048 -42.3231 -10.6572
lradius 82.1044
lwrist 60.6072
lhand 11.5416 27.0434
lfingers 7.12502
lthumb 36.587 53.2135
rfemur -28.2353 -11.0393 15.5893
rtibia 38.4348
rfoot -30.7869 -15.1691
rtoes 8.13163
lfemur -33.035 -8.73469 -20.6234
ltibia 29.0206
lfoot -0.530064 -17.1913
ltoes 15.7721
990
root -0.387662 17.0917 -1.14841 16.867 28.2758 7.58665
lowerback 14.0646 -2.89798 -0.41723
upperback 8.08751 -3.71678 -1.44614
thorax 0.575544 -1.77462 -0.779062
lowerneck -5.54476 -10.3825 -18.4427
upperneck 2.9456 -14.0594 22.8778
head 4.88891 -6.60816 9.20893
rclavicle 4.97956e-014 1.6201e-014
rhumerus -9.81219 -31.0399 6.62269
rradius 135.13
rwrist -23.0998
rhand 24.5482 12.6643
rfingers 7.12502
rthumb 48.746 -9.19274
lclavicle 4.97956e-014 1.6201e-014
lhumerus 39.6317 -41.7069 -12.6609
lradius 83.0863
lwrist 60.9034
lhand 12.3146 26.9482
lfingers 7.12502
lthumb 37.3182 52.9298
rfemur -28.61 -11.9444 14.6592
rtibia 39.5003
rfoot -31.3693 -15.555
rtoes 6.69684
lfemur -33.2262 -9.33645 -21.6088
ltibia 28.9931
lfoot 0.387812 -17.8845
ltoes 19.3243
991
root -0.328515 17.0542 -1.16258 17.3045 29.2366 8.32039
lowerback 13.9642 -2.8429 0.0899601
upperback 7.7627 -3.58545 -0.702083
thorax 0.303553 -1.71126 -0.301825
lowerneck -6.03099 -10.671 -18.4237
upperneck 2.6554 -14.3112 22.5657
head 4.91117 -6.71288 9.03529
rclavicle 8.15017e-014 -2.62396e-014
rhumerus -9.32209 -32.475 6.11039
rradius 134.854
rwrist -24.9875
rhand 23.8372 11.9114
rfingers 7.12502
rthumb 48.0915 -10.2586
lclavicle 8.15017e-014 -2.62396e-014
lhumerus 39.2879 -41.0386 -14.3205
lradius 83.9745
lwrist 60.7144
lhand 12.9579 26.8129
lfingers 7.12502
lthumb 37.9261 52.6323
rfemur -28.9078 -12.9036 13.9591
rtibia 40.5963
rfoot -31.8757 -15.8867
rtoes 5.43936
lfemur -33.4902 -9.99889 -22.3515
ltibia 29.2224
lfoot 0.911659 -18.5564
ltoes 20.8889
992
root -0.272325 17.0065 -1.17699 17.6071 30.1105 8.93533
lowerback 13.9036 -2.76335 0.459946
upperback 7.47563 -3.43099 0.100977
thorax 0.0625408 -1.64102 0.309622
lowerneck -6.68181 -10.9541 -18.5442
upperneck 2.5561 -14.5609 22.402
head 5.04079 -6.80035 8.92917
rclavicle 3.18055e-015 0
rhumerus -8.50528 -33.8915 5.17698
rradius 134.308
rwrist -26.7894
rhand 22.926 11.693
rfingers 7.12502
rthumb 47.2505 -10.8621
lclavicle 3.18055e-015 0
lhumerus 38.5376 -40.3592 -15.6263
lradius 84.4906
lwrist 60.2174
lhand 13.7206 26.8117
lfingers 7.12502
lthumb 38.646 52.4322
rfemur -29.0647 -13.8346 13.3467
rtibia 41.7146
rfoot -32.577 -15.9396
rtoes 5.35289
lfemur -33.761 -10.5133 -23.0061
ltibia 29.6885
lfoot 0.983703 -19.4213
ltoes 21.1311
993
root -0.214154 16.9515 -1.19034 17.8112 30.9672 9.54525
lowerback 13.9244 -2.60311 0.98359
upperback 7.19633 -3.14674 0.833953
thorax -0.228269 -1.49982 0.747848
lowerneck -7.12696 -11.3426 -18.624
upperneck 2.35048 -14.9762 22.2632
head 5.13639 -6.98225 8.80744
rclavicle 2.38542e-015 -1.19271e-014
rhumerus -8.05642 -35.2585 4.41918
rradius 133.735
rwrist -28.799
rhand 22.0512 11.2133
rfingers 7.12502
rthumb 46.4409 -11.6954
lclavicle 2.38542e-015 -1.19271e-014
lhumerus 38.1873 -39.7258 -17.1143
lradius 84.6669
lwrist 59.4558
lhand 14.2335 26.7819
lfingers 7.12502
lthumb 39.1297 52.2647
rfemur -29.127 -14.7851 12.6848
rtibia 42.8553
rfoot -33.4602 -15.9248
rtoes 5.17692
lfemur -33.9894 -11.1056 -23.6439
ltibia 30.3531
lfoot 1.27934 -20.2208
ltoes 23.5521
